<svg xmlns="http://www.w3.org/2000/svg" width="44.008" height="24.749" viewBox="0 0 44.008 24.749"><defs><style>.a{fill:#fffcfc;}</style></defs><g transform="translate(20.601 -5.625)"><path class="a" d="M44.122,5.625h-32.4C8.782,5.625,6.4,7.073,6.4,8.859c0,.541.729.984,1.619.984S9.638,9.4,9.638,8.859c0-.7.938-1.266,2.084-1.266h32.4c1.145,0,2.084.57,2.084,1.266V27.14c0,.7-.938,1.266-2.084,1.266h-32.4c-1.145,0-2.084-.57-2.084-1.266,0-.541-.729-.984-1.619-.984S6.4,26.6,6.4,27.14c0,1.786,2.383,3.234,5.322,3.234h32.4c2.939,0,5.322-1.448,5.322-3.234V8.859c0-1.786-2.383-3.234-5.322-3.234Z" transform="translate(-27)"/><path class="a" d="M15.75,23.5a.992.992,0,0,0,0,1.392l.007.007a1.016,1.016,0,0,0,.689.274.95.95,0,0,0,.7-.288l5.808-5.794a1.382,1.382,0,0,0,0-2.054L17,11.1a.978.978,0,0,0-.7-.288.961.961,0,0,0-.7.288.98.98,0,0,0,0,1.392l4.584,4.514H4.43a.984.984,0,1,0,0,1.968H20.222Z"/></g></svg>