<svg xmlns="http://www.w3.org/2000/svg" width="20.606" height="26.155" viewBox="0 0 20.606 26.155"><path d="M24.03,10.218H22.743V7.727A6.338,6.338,0,0,0,16.3,1.5,6.338,6.338,0,0,0,9.864,7.727v2.491H8.576A2.542,2.542,0,0,0,6,12.709V25.164a2.542,2.542,0,0,0,2.576,2.491H24.03a2.542,2.542,0,0,0,2.576-2.491V12.709A2.542,2.542,0,0,0,24.03,10.218ZM16.3,21.427a2.492,2.492,0,1,1,2.576-2.491A2.542,2.542,0,0,1,16.3,21.427ZM20.3,10.218H12.311V7.727a3.995,3.995,0,0,1,7.985,0Z" transform="translate(-6 -1.5)"/></svg>