<svg xmlns="http://www.w3.org/2000/svg" xmlns:xlink="http://www.w3.org/1999/xlink" width="336" height="60" viewBox="0 0 336 60"><defs><style>.a{fill:#fff;}.b,.c{stroke:none;}.c{fill:#707070;}.d{filter:url(#a);}</style><filter id="a" x="0" y="0" width="336" height="60" filterUnits="userSpaceOnUse"><feOffset dy="3" input="SourceAlpha"/><feGaussianBlur stdDeviation="3" result="b"/><feFlood flood-opacity="0.161"/><feComposite operator="in" in2="b"/><feComposite in="SourceGraphic"/></filter></defs><g class="d" transform="matrix(1, 0, 0, 1, 0, 0)"><g class="a" transform="translate(9 6)"><path class="b" d="M 297 41.5 L 21 41.5 C 18.23229217529297 41.5 15.54766654968262 40.95804214477539 13.02062511444092 39.88920974731445 C 10.57958316802979 38.85675048828125 8.387166976928711 37.3785400390625 6.50433349609375 35.49570846557617 C 4.621458530426025 33.61283493041992 3.143291711807251 31.42045783996582 2.110791683197021 28.9793758392334 C 1.041958332061768 26.4523754119873 0.5 23.76770782470703 0.5 21 C 0.5 18.23229217529297 1.041958332061768 15.5476245880127 2.110791683197021 13.02062511444092 C 3.143291711807251 10.57954120635986 4.621458530426025 8.387166976928711 6.50433349609375 6.504291534423828 C 8.387166976928711 4.621458530426025 10.57958316802979 3.143249988555908 13.02062511444092 2.110791683197021 C 15.54766654968262 1.041958332061768 18.23229217529297 0.5 21 0.5 L 297 0.5 C 299.7677001953125 0.5 302.4523620605469 1.041958332061768 304.9793701171875 2.110791683197021 C 307.4204711914063 3.143249988555908 309.6128234863281 4.621458530426025 311.4956970214844 6.504291534423828 C 313.3785400390625 8.387166976928711 314.8567504882813 10.57954120635986 315.8892211914063 13.02062511444092 C 316.9580383300781 15.5476245880127 317.5 18.23229217529297 317.5 21 C 317.5 23.76770782470703 316.9580383300781 26.4523754119873 315.8892211914063 28.9793758392334 C 314.8567504882813 31.42045783996582 313.3785400390625 33.61283493041992 311.4956970214844 35.49570846557617 C 309.6128234863281 37.3785400390625 307.4204711914063 38.85675048828125 304.9793701171875 39.88920974731445 C 302.4523620605469 40.95804214477539 299.7677001953125 41.5 297 41.5 Z"/><path class="c" d="M 21 1 C 18.29959106445313 1 15.68045043945313 1.528667449951172 13.21536254882813 2.571292877197266 C 10.83392333984375 3.578540802001953 8.6949462890625 5.020748138427734 6.857879638671875 6.857875823974609 C 5.020751953125 8.694957733154297 3.57855224609375 10.83391761779785 2.5712890625 13.21537590026855 C 1.528656005859375 15.68045806884766 1 18.29958343505859 1 21 C 1 23.70041656494141 1.528656005859375 26.31954193115234 2.5712890625 28.78462600708008 C 3.57855224609375 31.16608428955078 5.020751953125 33.3050422668457 6.857879638671875 35.14212417602539 C 8.6949462890625 36.979248046875 10.83392333984375 38.42145919799805 13.21536254882813 39.42870712280273 C 15.68045043945313 40.47133255004883 18.29959106445313 41 21 41 L 297 41 C 299.7004089355469 41 302.3195495605469 40.47133255004883 304.7846374511719 39.42870712280273 C 307.1660766601563 38.42145919799805 309.3050537109375 36.979248046875 311.1421203613281 35.14212417602539 C 312.979248046875 33.3050422668457 314.4214477539063 31.16608428955078 315.4287109375 28.78462600708008 C 316.4713439941406 26.31954193115234 317 23.70041656494141 317 21 C 317 18.29958343505859 316.4713439941406 15.68045806884766 315.4287109375 13.21537590026855 C 314.4214477539063 10.83391761779785 312.979248046875 8.694957733154297 311.1421203613281 6.857875823974609 C 309.3050537109375 5.020748138427734 307.1660766601563 3.578540802001953 304.7846374511719 2.571292877197266 C 302.3195495605469 1.528667449951172 299.7004089355469 1 297 1 L 21 1 M 21 0 L 297 0 C 308.5979919433594 0 318 9.402000427246094 318 21 C 318 32.59799957275391 308.5979919433594 42 297 42 L 21 42 C 9.402008056640625 42 0 32.59799957275391 0 21 C 0 9.402000427246094 9.402008056640625 0 21 0 Z"/></g></g></svg>