<svg xmlns="http://www.w3.org/2000/svg" width="27.061" height="21.323" viewBox="0 0 27.061 21.323"><path d="M12.471,18.162c2.611,0,4.736-2.391,4.736-5.331S15.083,7.5,12.471,7.5,7.736,9.891,7.736,12.831,9.86,18.162,12.471,18.162Zm0-7.615a2.166,2.166,0,0,1,2.03,2.285,2.166,2.166,0,0,1-2.03,2.285,2.166,2.166,0,0,1-2.03-2.285A2.166,2.166,0,0,1,12.471,10.546Zm.068,15.231H6.748a12.778,12.778,0,0,1,5.723-1.523c.149,0,.311.015.46.015a6.757,6.757,0,0,1,2.219-2.757,14.156,14.156,0,0,0-2.679-.3C9.305,21.208,3,22.99,3,26.539v2.285h9.471V26.539a4.671,4.671,0,0,1,.068-.762Zm10.08-3.808c-2.49,0-7.442,1.538-7.442,4.569v2.285H30.061V26.539C30.061,23.508,25.109,21.969,22.619,21.969ZM24.256,19.2A3.921,3.921,0,0,0,26,15.877a3.614,3.614,0,0,0-3.383-3.808,3.614,3.614,0,0,0-3.383,3.808,3.921,3.921,0,0,0,1.745,3.32,2.993,2.993,0,0,0,3.274,0Z" transform="translate(-3 -7.5)"/></svg>